<?xml version="1.0" encoding="utf-8"?>
<svg version="1.1" xmlns:xlink="http://www.w3.org/1999/xlink" width="10px" height="24px" preserveAspectRatio="xMidYMin meet" viewBox="870 711  8 24" xmlns="http://www.w3.org/2000/svg">
  <path d="M 874 711  L 874 725  A 5 5 0 0 0 879 730 L 993 730  A 5 5 0 0 0 998 725 L 998 688  A 3 3 0 0 0 1001 685 A 3 3 0 0 0 998 682 L 998 616  A 3 3 0 0 0 1001 613 A 3 3 0 0 0 998 610 L 998 524  A 3 3 0 0 0 1001 521 A 3 3 0 0 0 998 518 L 998 400  A 5 5 0 0 1 1003 395 L 1032 395  " stroke-width="2" stroke="#0099cc" fill="none" />
  <path d="M 1026.8928932188135 390.70710678118655  L 1031.185786437627 395  L 1026.8928932188135 399.29289321881345  L 1028.3071067811863 400.70710678118655  L 1033.3071067811863 395.70710678118655  L 1034.0142135623728 395  L 1033.3071067811863 394.29289321881345  L 1028.3071067811863 389.29289321881345  L 1026.8928932188135 390.70710678118655  Z " fill-rule="nonzero" fill="#0099cc" stroke="none" />
</svg>