<?xml version="1.0" encoding="utf-8"?>
<svg version="1.1" xmlns:xlink="http://www.w3.org/1999/xlink" width="18px" height="16px" xmlns="http://www.w3.org/2000/svg">
  <g transform="matrix(1 0 0 1 -816 -881 )">
    <path d="M 6.051897321428612 5.5379296875  C 6.30301339285711 5.789882812499993  6.428571428571388 6.093906249999993  6.428571428571388 6.449999999999992  C 6.428571428571388 6.806093749999988  6.30301339285711 7.110117187499991  6.051897321428612 7.362070312499995  C 5.80078125 7.614023437499998  5.497767857142861 7.739999999999995  5.14285714285711 7.739999999999995  C 4.787946428571445 7.739999999999995  4.484933035714306 7.614023437499998  4.233816964285694 7.362070312499995  C 3.9827008928571104 7.110117187499991  3.8571428571428896 6.806093749999988  3.8571428571428896 6.449999999999992  C 3.8571428571428896 6.093906249999993  3.9827008928571104 5.789882812499993  4.233816964285694 5.5379296875  C 4.484933035714306 5.285976562499997  4.787946428571445 5.16  5.14285714285711 5.16  C 5.497767857142861 5.16  5.80078125 5.285976562499997  6.051897321428612 5.5379296875  Z M 9.909040178571388 5.5379296875  C 10.16015625 5.789882812499993  10.285714285714306 6.093906249999993  10.285714285714306 6.449999999999992  C 10.285714285714306 6.806093749999988  10.16015625 7.110117187499991  9.909040178571388 7.362070312499995  C 9.65792410714289 7.614023437499998  9.354910714285666 7.739999999999995  9 7.739999999999995  C 8.645089285714334 7.739999999999995  8.34207589285711 7.614023437499998  8.090959821428612 7.362070312499995  C 7.83984375 7.110117187499991  7.714285714285694 6.806093749999988  7.714285714285694 6.449999999999992  C 7.714285714285694 6.093906249999993  7.83984375 5.789882812499993  8.090959821428612 5.5379296875  C 8.34207589285711 5.285976562499997  8.645089285714334 5.16  9 5.16  C 9.354910714285666 5.16  9.65792410714289 5.285976562499997  9.909040178571388 5.5379296875  Z M 13.766183035714306 5.5379296875  C 14.01729910714289 5.789882812499993  14.14285714285711 6.093906249999993  14.14285714285711 6.449999999999992  C 14.14285714285711 6.806093749999988  14.01729910714289 7.110117187499991  13.766183035714306 7.362070312499995  C 13.515066964285694 7.614023437499998  13.212053571428555 7.739999999999995  12.85714285714289 7.739999999999995  C 12.502232142857139 7.739999999999995  12.19921875 7.614023437499998  11.948102678571388 7.362070312499995  C 11.69698660714289 7.110117187499991  11.571428571428612 6.806093749999988  11.571428571428612 6.449999999999992  C 11.571428571428612 6.093906249999993  11.69698660714289 5.789882812499993  11.948102678571388 5.5379296875  C 12.19921875 5.285976562499997  12.502232142857139 5.16  12.85714285714289 5.16  C 13.212053571428555 5.16  13.515066964285694 5.285976562499997  13.766183035714306 5.5379296875  Z M 12.83203125 1.9904296875000043  C 11.643415178571445 1.5234765624999955  10.366071428571388 1.2900000000000027  9 1.2900000000000027  C 7.633928571428612 1.2900000000000027  6.356584821428555 1.5234765624999955  5.16796875 1.9904296875000043  C 3.979352678571445 2.4573828125000006  3.0351562500000284 3.0872656249999917  2.335379464285694 3.880078124999992  C 1.6356026785714732 4.67289062499999  1.285714285714306 5.5295312499999945  1.285714285714306 6.449999999999992  C 1.285714285714306 7.20249999999999  1.5251116071428612 7.919726562499989  2.00390625 8.601679687499988  C 2.482700892857139 9.283632812499988  3.157366071428555 9.873203124999993  4.027901785714306 10.370390624999999  L 4.901785714285694 10.874296874999992  L 4.63058035714289 11.841796874999982  C 4.469866071428612 12.453203124999987  4.235491071428527 13.031015624999995  3.9274553571428896 13.57523437499998  C 4.945312499999972 13.151953124999999  5.866071428571388 12.577499999999993  6.68973214285711 11.851874999999989  L 7.121651785714306 11.468906249999996  L 7.694196428571388 11.529374999999987  C 8.15625 11.583124999999988  8.591517857142861 11.609999999999992  9 11.609999999999992  C 10.366071428571388 11.609999999999992  11.643415178571445 11.376523437499987  12.83203125 10.90957031249999  C 14.020647321428555 10.442617187499994  14.964843749999972 9.812734374999991  15.664620535714306 9.01992187499999  C 16.364397321428527 8.22710937499999  16.714285714285694 7.370468750000001  16.714285714285694 6.449999999999992  C 16.714285714285694 5.5295312499999945  16.364397321428527 4.67289062499999  15.664620535714306 3.880078124999992  C 14.964843749999972 3.0872656249999917  14.020647321428555 2.4573828125000006  12.83203125 1.9904296875000043  Z M 17.28683035714289 3.945585937499997  C 17.762276785714278 4.741757812499998  18 5.576562499999987  18 6.449999999999992  C 18 7.619062499999989  17.598214285714306 8.69910156249999  16.79464285714289 9.690117187499997  C 15.991071428571388 10.681132812499989  14.899553571428555 11.463867187499993  13.520089285714306 12.038320312499987  C 12.140625000000028 12.612773437499992  10.633928571428527 12.899999999999984  9 12.899999999999984  C 8.531249999999972 12.899999999999984  8.045758928571388 12.873124999999991  7.543526785714306 12.81937499999998  C 6.217633928571388 13.99515624999998  4.677455357142833 14.808124999999993  2.922991071428612 15.258281249999992  C 2.594866071428555 15.352343749999982  2.213169642857167 15.426249999999978  1.777901785714306 15.47999999999999  L 1.727678571428612 15.47999999999999  C 1.6272321428571104 15.47999999999999  1.5368303571428896 15.44472656249999  1.456473214285694 15.374179687499996  C 1.376116071428612 15.303632812499998  1.3225446428571388 15.211249999999986  1.295758928571388 15.097031249999986  L 1.295758928571388 15.08695312499998  C 1.2756696428571104 15.060078124999986  1.2739955357142776 15.019765624999984  1.2907366071428896 14.966015624999997  C 1.3074776785714448 14.91226562499999  1.3141741071428612 14.878671874999991  1.3108258928571104 14.865234374999982  C 1.3074776785714448 14.851796874999998  1.3225446428571388 14.819882812500005  1.356026785714306 14.769492187499992  L 1.4162946428571104 14.678789062499984  C 1.4162946428571104 14.678789062499984  1.4397321428571672 14.65023437499999  1.4866071428571104 14.593125  C 1.5334821428571388 14.53601562499999  1.5602678571428612 14.505781249999995  1.566964285714306 14.502421874999992  C 1.6138392857143344 14.448671874999981  1.717633928571388 14.33277343749998  1.878348214285694 14.154726562499988  C 2.0390625 13.976679687499995  2.1545758928571104 13.849023437499987  2.2248883928571104 13.771757812499985  C 2.2952008928571104 13.694492187499982  2.3989955357142776 13.561796874999995  2.536272321428612 13.373671874999996  C 2.673549107142833 13.185546874999996  2.782366071428612 13.014218749999984  2.862723214285694 12.859687499999982  C 2.9430803571428896 12.705156250000002  3.0334821428571104 12.506953124999995  3.133928571428612 12.265078124999988  C 3.234375 12.023203125000002  3.3214285714285268 11.767890624999986  3.395089285714306 11.499140624999995  C 2.3437499999999716 10.901171874999985  1.5150669642856656 10.162109374999996  0.909040178571388 9.281953124999987  C 0.3030133928571388 8.401796874999995  0 7.457812499999996  0 6.449999999999992  C 0 5.576562499999987  0.2377232142857224 4.741757812499998  0.7131696428571104 3.945585937499997  C 1.1886160714285552 3.1494140624999964  1.828125 2.4624218749999915  2.631696428571388 1.8846093749999966  C 3.4352678571428896 1.3067968750000016  4.392857142857167 0.8482421874999986  5.504464285714306 0.5089453124999999  C 6.616071428571445 0.16964843749999936  7.781250000000028 0  9 0  C 10.218749999999972 0  11.383928571428555 0.16964843749999936  12.495535714285694 0.5089453124999999  C 13.607142857142833 0.8482421874999986  14.56473214285711 1.3067968750000016  15.368303571428612 1.8846093749999966  C 16.171875 2.4624218749999915  16.811383928571445 3.1494140624999964  17.28683035714289 3.945585937499997  Z " fill-rule="nonzero" fill="#d7d7d7" stroke="none" transform="matrix(1 0 0 1 816 881 )" />
  </g>
</svg>