<?xml version="1.0" standalone="no"?><!DOCTYPE svg PUBLIC "-//W3C//DTD SVG 1.1//EN" "http://www.w3.org/Graphics/SVG/1.1/DTD/svg11.dtd"><svg t="1709210099915" class="icon" viewBox="0 0 1024 1024" version="1.1" xmlns="http://www.w3.org/2000/svg" p-id="5609" width="500" height="500" xmlns:xlink="http://www.w3.org/1999/xlink"><path d="M752.64 840.132267c4.266667 0 7.68-3.413333 7.68-7.68s-3.413333-7.68-7.68-7.68H50.346667c-4.266667-0.853333-7.68 2.56-7.68 6.826666s3.413333 7.68 7.68 7.68h702.293333zM817.493333 840.132267c4.266667 0 7.68-3.413333 7.68-7.68s-3.413333-7.68-7.68-7.68h-24.746666c-4.266667-0.853333-7.68 2.56-7.68 6.826666s3.413333 7.68 7.68 7.68h24.746666zM973.653333 840.132267c4.266667 0 7.68-3.413333 7.68-7.68s-3.413333-7.68-7.68-7.68h-90.453333c-4.266667 0-7.68 3.413333-7.68 7.68s3.413333 7.68 7.68 7.68h90.453333zM351.573333 914.645333c4.266667 0 7.68-3.413333 7.68-7.68s-3.413333-7.68-7.68-7.68H281.6c-4.266667 0-7.68 3.413333-7.68 7.68s3.413333 7.68 7.68 7.68h69.973333zM702.293333 914.645333c4.266667 0 7.68-3.413333 7.68-7.68s-3.413333-7.68-7.68-7.68H396.8c-4.266667 0-7.68 3.413333-7.68 7.68s3.413333 7.68 7.68 7.68h305.493333zM844.8 658.645333h-22.186667c-11.093333 0-11.093333 16.213333 0 16.213334h30.72c4.266667 0 7.68-3.413333 7.68-7.68v-29.866667c0-11.093333-16.213333-11.093333-16.213333 0v21.333333z" fill="#C3CBD6" p-id="5610"></path><path d="M861.013333 674.858667h22.186667c11.093333 0 11.093333-16.213333 0-16.213334H853.333333c-4.266667 0-7.68 3.413333-7.68 7.68v29.866667c0 11.093333 16.213333 11.093333 16.213334 0v-21.333333zM82.773333 418.858667H60.586667c-11.093333 0-11.093333 16.213333 0 16.213333h29.866666c4.266667 0 7.68-3.413333 7.68-7.68v-29.866667c0-11.093333-16.213333-11.093333-16.213333 0v21.333334z" fill="#C3CBD6" p-id="5611"></path><path d="M809.813333 116.778667v27.306666h-27.306666c-11.093333 0-11.093333 16.213333 0 16.213334h27.306666v27.306666c0 11.093333 16.213333 11.093333 16.213334 0v-27.306666h27.306666c11.093333 0 11.093333-16.213333 0-16.213334h-27.306666v-27.306666c0-10.24-16.213333-10.24-16.213334 0z" fill="#C3CBD6" p-id="5612"></path><path d="M98.986667 435.072h22.186666c11.093333 0 11.093333-16.213333 0-16.213333h-30.72c-4.266667 0-7.68 3.413333-7.68 7.68v29.866666c0 11.093333 16.213333 11.093333 16.213334 0v-21.333333z" fill="#C3CBD6" p-id="5613"></path><path d="M176.520533 727.150933l-6.826666-6.826666c-4.266667-4.266667-11.946667 2.56-6.826667 6.826666l10.24 10.24c1.706667 1.706667 5.12 1.706667 6.826667 0l11.093333-10.24c4.266667-5.12-2.56-11.946667-6.826667-6.826666l-7.68 6.826666z" fill="#C3CBD6" p-id="5614"></path><path d="M176.520533 741.6576l6.826667 6.826667c4.266667 5.12 11.946667-2.56 6.826667-6.826667l-11.093334-10.24c-1.706667-1.706667-5.12-1.706667-6.826666 0l-9.386667 10.24c-5.12 5.12 2.56 11.946667 6.826667 6.826667l6.826666-6.826667zM265.2672 204.0576l-6.826667-6.826667c-5.12-5.12-11.946667 2.56-6.826666 6.826667l11.093333 10.24c1.706667 1.706667 5.12 1.706667 6.826667 0l10.24-10.24c5.12-4.266667-2.56-11.946667-6.826667-6.826667l-7.68 6.826667z" fill="#C3CBD6" p-id="5615"></path><path d="M265.2672 218.564267l6.826667 6.826666c5.12 4.266667 11.946667-2.56 6.826666-6.826666l-11.093333-10.24c-1.706667-1.706667-5.12-1.706667-6.826667 0l-11.093333 10.24c-3.413333 4.266667 3.413333 11.093333 8.533333 6.826666l6.826667-6.826666z" fill="#C3CBD6" p-id="5616"></path><path d="M622.037333 301.934933h-320.853333c-19.626667 0-34.986667 15.36-34.986667 34.986667v389.973333c0 18.773333 15.36 34.986667 34.986667 34.986667h320.853333c19.626667 0 34.986667-15.36 34.986667-34.986667v-116.906666c-3.413333 2.56-5.973333 4.266667-9.386667 5.973333v110.933333c0 13.653333-11.093333 25.6-25.6 25.6h-320.853333c-13.653333 0-25.6-11.093333-25.6-25.6v-389.973333c0-13.653333 11.093333-25.6 25.6-25.6h320.853333c14.506667 0 25.6 11.093333 25.6 25.6v70.826667c3.413333 1.706667 6.826667 4.266667 9.386667 5.973333v-76.8c0-18.773333-15.36-34.986667-34.986667-34.986667z" fill="#C3CBD6" p-id="5617"></path><path d="M349.824 430.788267v8.533333h59.733333v-8.533333h-59.733333z m0 69.973333v8.533333h40.106667v-8.533333h-40.106667z m0 69.973333v8.533334h49.493333v-8.533334h-49.493333z" fill="#C3CBD6" p-id="5618"></path><path d="M724.676267 715.682133c11.093333 11.946667 29.866667 13.653333 42.666666 2.56 11.946667-11.093333 13.653333-29.866667 2.56-42.666666l-73.386666-81.066667-44.373334 40.106667 72.533334 81.066666z" fill="#F5F7F9" p-id="5619"></path><path d="M773.316267 673.015467l-51.2-57.173334-3.413334-3.413333-3.413333-3.413333-17.92-20.48-40.106667 35.84-9.386666 8.533333-2.56 1.706667 2.56 2.56 9.386666 10.24 5.12 5.973333 3.413334 3.413333 3.413333 3.413334 52.053333 58.026666c6.826667 7.68 16.213333 11.093333 25.6 11.093334 8.533333 0 16.213333-3.413333 23.04-9.386667 6.826667-5.973333 11.093333-14.506667 11.946667-23.893333 0.853333-7.68-2.56-16.213333-8.533333-23.04z m-44.373334 40.106666l-51.2-57.173333-3.413333-3.413333-3.413333-3.413334-11.946667-13.653333 37.546667-34.133333 12.8 14.506666 3.413333 3.413334 3.413333 3.413333 50.346667 56.32c4.266667 5.12 6.826667 11.093333 6.826667 17.92s-3.413333 12.8-8.533334 17.066667c-11.093333 10.24-27.306667 9.386667-35.84-0.853334z" fill="#C3CBD6" p-id="5620"></path><path d="M602.6496 568.055467c0 7.68-5.973333 14.506667-14.506667 14.506666h-1.706666c-7.68 0-14.506667-5.973333-14.506667-14.506666 0-7.68 6.826667-14.506667 14.506667-14.506667h1.706666c7.68 0.853333 14.506667 6.826667 14.506667 14.506667zM636.782933 488.695467c0 9.386667-3.413333 16.213333-9.386666 22.186666-3.413333 3.413333-5.12 4.266667-17.92 12.8-5.973333 4.266667-8.533333 7.68-8.533334 14.506667 0 1.706667 0.853333 5.12-2.56 5.973333-3.413333 0.853333-18.773333 0.853333-22.186666 0-2.56-0.853333-2.56-2.56-2.56-6.826666 0-10.24 1.706667-16.213333 6.826666-22.186667 3.413333-4.266667 5.12-5.12 15.36-11.093333 7.68-4.266667 10.24-7.68 10.24-12.8 0-6.826667-5.12-11.093333-14.506666-11.093334-6.826667 0-11.946667 2.56-14.506667 6.826667-1.706667 2.56-2.56 3.413333-2.56 9.386667 0 5.973333-31.573333 7.68-30.72-2.56 0.853333-10.24 4.266667-16.213333 9.386667-23.04 8.533333-10.24 22.186667-15.36 39.253333-15.36 27.306667-0.853333 44.373333 12.8 44.373333 33.28z" fill="#F5F7F9" p-id="5621"></path><path d="M657.262933 362.402133c-3.413333-1.706667-5.973333-2.56-9.386666-4.266666-18.773333-6.826667-39.253333-11.093333-60.586667-11.093334-91.306667 0-165.546667 74.24-165.546667 164.693334 0 91.306667 74.24 165.546667 165.546667 165.546666 21.333333 0 41.813333-4.266667 60.586667-11.093333 3.413333-0.853333 6.826667-2.56 9.386666-4.266667 2.56-1.706667 5.973333-2.56 8.533334-4.266666 1.706667-0.853333 2.56-1.706667 4.266666-2.56 1.706667-0.853333 2.56-1.706667 4.266667-2.56 14.506667-8.533333 27.306667-19.626667 38.4-33.28l3.413333-3.413334c0.853333-1.706667 1.706667-2.56 2.56-3.413333 21.333333-28.16 34.133333-62.293333 34.133334-99.84 0-66.56-39.253333-123.733333-95.573334-150.186667z m0 247.466667c-3.413333 2.56-5.973333 4.266667-9.386666 5.973333-17.92 10.24-38.4 16.213333-60.586667 16.213334-66.56 0-120.32-53.76-120.32-120.32s54.613333-120.32 120.32-120.32c22.186667 0 42.666667 5.973333 60.586667 16.213333 3.413333 1.706667 6.826667 4.266667 9.386666 5.973333 30.72 22.186667 50.346667 57.173333 50.346667 98.133334s-19.626667 75.946667-50.346667 98.133333z" fill="#F5F7F9" p-id="5622"></path><path d="M657.262933 357.282133c-3.413333-1.706667-5.973333-2.56-9.386666-4.266666-18.773333-6.826667-39.253333-11.093333-60.586667-11.093334-93.866667 0-169.813333 75.946667-169.813333 169.813334 0 93.866667 76.8 169.813333 169.813333 169.813333 21.333333 0 41.813333-4.266667 60.586667-11.093333 3.413333-0.853333 6.826667-2.56 9.386666-4.266667 4.266667-1.706667 7.68-3.413333 11.946667-5.973333 1.706667-0.853333 2.56-1.706667 4.266667-2.56 1.706667-0.853333 2.56-1.706667 4.266666-2.56 14.506667-9.386667 27.306667-20.48 38.4-33.28l3.413334-3.413334c0.853333-0.853333 1.706667-2.56 2.56-3.413333 22.186667-29.013333 35.84-64.853333 35.84-103.253333-0.853333-68.266667-41.813333-128-100.693334-154.453334z m55.466667 255.146667c-0.853333 0.853333-1.706667 2.56-3.413333 3.413333-11.093333 12.8-23.893333 23.893333-38.4 33.28-1.706667 0.853333-2.56 1.706667-4.266667 2.56-1.706667 0.853333-2.56 1.706667-4.266667 2.56l-5.12 2.56c-3.413333 1.706667-5.973333 2.56-9.386666 4.266667-18.773333 7.68-39.253333 11.946667-60.586667 11.946667-88.746667-0.853333-161.28-72.533333-161.28-161.28 0-87.893333 72.533333-159.573333 161.28-159.573334 21.333333 0 41.813333 4.266667 60.586667 11.946667 3.413333 0.853333 6.826667 2.56 9.386666 4.266667 53.76 25.6 90.453333 81.066667 90.453334 144.213333 0 35.84-11.946667 69.12-32.426667 96.426667-0.853333 0.853333-1.706667 1.706667-2.56 3.413333z" fill="#C3CBD6" p-id="5623"></path><path d="M602.6496 568.055467c0 7.68-5.973333 14.506667-14.506667 14.506666h-1.706666c-7.68 0-14.506667-5.973333-14.506667-14.506666 0-7.68 6.826667-14.506667 14.506667-14.506667h1.706666c7.68 0.853333 14.506667 6.826667 14.506667 14.506667zM636.782933 488.695467c0 9.386667-3.413333 16.213333-9.386666 22.186666-3.413333 3.413333-5.12 4.266667-17.92 12.8-5.973333 4.266667-8.533333 7.68-8.533334 14.506667 0 1.706667 0.853333 5.12-2.56 5.973333-3.413333 0.853333-18.773333 0.853333-22.186666 0-2.56-0.853333-2.56-2.56-2.56-6.826666 0-10.24 1.706667-16.213333 6.826666-22.186667 3.413333-4.266667 5.12-5.12 15.36-11.093333 7.68-4.266667 10.24-7.68 10.24-12.8 0-6.826667-5.12-11.093333-14.506666-11.093334-6.826667 0-11.946667 2.56-14.506667 6.826667-1.706667 2.56-2.56 3.413333-2.56 9.386667 0 5.973333-31.573333 7.68-30.72-2.56 0.853333-10.24 4.266667-16.213333 9.386667-23.04 8.533333-10.24 22.186667-15.36 39.253333-15.36 27.306667-0.853333 44.373333 12.8 44.373333 33.28z" fill="#FFFFFF" p-id="5624"></path><path d="M657.262933 408.482133c-3.413333-1.706667-5.973333-4.266667-9.386666-5.973333-17.92-10.24-38.4-15.36-60.586667-15.36-69.12 0-125.44 56.32-125.44 124.586667 0 69.12 56.32 124.586667 125.44 124.586666 22.186667 0 42.666667-5.973333 60.586667-15.36 3.413333-1.706667 6.826667-3.413333 9.386666-5.973333 33.28-22.186667 55.466667-60.586667 55.466667-104.106667 0-41.813333-22.186667-80.213333-55.466667-102.4z m0 201.386667c-3.413333 2.56-5.973333 4.266667-9.386666 5.973333-17.92 10.24-38.4 16.213333-60.586667 16.213334-66.56 0-120.32-53.76-120.32-120.32s54.613333-120.32 120.32-120.32c22.186667 0 42.666667 5.973333 60.586667 16.213333 3.413333 1.706667 6.826667 4.266667 9.386666 5.973333 30.72 22.186667 50.346667 57.173333 50.346667 98.133334s-19.626667 75.946667-50.346667 98.133333z" fill="#FFFFFF" p-id="5625"></path><path d="M657.262933 402.5088c-3.413333-1.706667-5.973333-3.413333-9.386666-5.12-17.92-9.386667-38.4-15.36-60.586667-15.36-71.68 0-130.56 58.88-130.56 129.706667 0 71.68 58.026667 129.706667 129.706667 129.706666 22.186667 0 42.666667-5.12 60.586666-15.36 3.413333-1.706667 6.826667-3.413333 9.386667-5.12 35.84-23.04 59.733333-63.146667 59.733333-109.226666 0.853333-45.226667-23.04-86.186667-58.88-109.226667z m0 207.36c-3.413333 2.56-5.973333 4.266667-9.386666 5.973333-17.92 10.24-38.4 16.213333-60.586667 16.213334-66.56 0-120.32-53.76-120.32-120.32s54.613333-120.32 120.32-120.32c22.186667 0 42.666667 5.973333 60.586667 16.213333 3.413333 1.706667 6.826667 4.266667 9.386666 5.973333 30.72 22.186667 50.346667 57.173333 50.346667 98.133334s-19.626667 75.946667-50.346667 98.133333z" fill="#C3CBD6" p-id="5626"></path><path d="M636.680533 489.045333c0 9.386667-3.413333 16.213333-9.386666 22.186667-3.413333 2.56-5.12 4.266667-17.92 11.946667-5.973333 4.266667-8.533333 7.68-8.533334 14.506666 0 1.706667 0.853333 5.12-2.56 5.973334-3.413333 0.853333-18.773333 0.853333-22.186666 0-2.56-0.853333-2.56-2.56-2.56-6.826667 0-10.24 1.706667-16.213333 6.826666-22.186667 3.413333-4.266667 5.12-5.12 15.36-11.093333 6.826667-4.266667 9.386667-7.68 9.386667-12.8 0-6.826667-5.12-11.093333-14.506667-11.093333-6.826667 0-11.946667 2.56-14.506666 6.826666-0.853333 2.56-1.706667 3.413333-2.56 9.386667 0 5.973333-31.573333 7.68-30.72-2.56 0.853333-10.24 4.266667-16.213333 9.386666-23.04 8.533333-10.24 22.186667-15.36 39.253334-15.36 28.16 0 45.226667 12.8 45.226666 34.133333zM602.5472 568.405333c0 7.68-5.973333 14.506667-14.506667 14.506667h-1.706666c-7.68 0-14.506667-5.973333-14.506667-14.506667 0-7.68 6.826667-14.506667 14.506667-14.506666h1.706666c7.68 0 14.506667 6.826667 14.506667 14.506666z" fill="#C3CBD6" p-id="5627"></path></svg>