<?xml version="1.0" encoding="utf-8"?>
<svg version="1.1" xmlns:xlink="http://www.w3.org/1999/xlink" width="18px" height="16px" xmlns="http://www.w3.org/2000/svg">
  <g transform="matrix(1 0 0 1 -220 -869 )">
    <path d="M 7.896634615384642 8.65534090909091  C 8.170673076923094 8.927386363636344  8.30769230769232 9.249545454545455  8.30769230769232 9.621818181818185  L 8.30769230769232 13.74545454545455  C 8.30769230769232 14.11772727272728  8.170673076923094 14.43988636363639  7.896634615384642 14.711931818181824  C 7.622596153846132 14.983977272727259  7.298076923076906 15.120000000000005  6.923076923076906 15.120000000000005  L 1.3846153846153584 15.120000000000005  C 1.0096153846153584 15.120000000000005  0.685096153846132 14.983977272727259  0.4110576923076792 14.711931818181824  C 0.1370192307692264 14.43988636363639  0 14.11772727272728  0 13.74545454545455  L 0 9.621818181818185  C 0 9.249545454545455  0.1370192307692264 8.927386363636344  0.4110576923076792 8.65534090909091  C 0.685096153846132 8.383295454545475  1.0096153846153584 8.24727272727273  1.3846153846153584 8.24727272727273  L 6.923076923076906 8.24727272727273  C 7.298076923076906 8.24727272727273  7.622596153846132 8.383295454545475  7.896634615384642 8.65534090909091  Z M 7.896634615384642 0.40806818181818016  C 8.170673076923094 0.6801136363636147  8.30769230769232 1.0022727272727252  8.30769230769232 1.374545454545455  L 8.30769230769232 5.49818181818182  C 8.30769230769232 5.87045454545455  8.170673076923094 6.19261363636366  7.896634615384642 6.464659090909095  C 7.622596153846132 6.736704545454529  7.298076923076906 6.872727272727275  6.923076923076906 6.872727272727275  L 1.3846153846153584 6.872727272727275  C 1.0096153846153584 6.872727272727275  0.685096153846132 6.736704545454529  0.4110576923076792 6.464659090909095  C 0.1370192307692264 6.19261363636366  0 5.87045454545455  0 5.49818181818182  L 0 1.374545454545455  C 0 1.0022727272727252  0.1370192307692264 0.6801136363636147  0.4110576923076792 0.40806818181818016  C 0.685096153846132 0.13602272727274567  1.0096153846153584 0  1.3846153846153584 0  L 6.923076923076906 0  C 7.298076923076906 0  7.622596153846132 0.13602272727274567  7.896634615384642 0.40806818181818016  Z M 17.58894230769232 8.65534090909091  C 17.862980769230774 8.927386363636344  18 9.249545454545455  18 9.621818181818185  L 18 13.74545454545455  C 18 14.11772727272728  17.862980769230774 14.43988636363639  17.58894230769232 14.711931818181824  C 17.314903846153868 14.983977272727259  16.99038461538464 15.120000000000005  16.61538461538464 15.120000000000005  L 11.076923076923094 15.120000000000005  C 10.701923076923094 15.120000000000005  10.377403846153868 14.983977272727259  10.103365384615358 14.711931818181824  C 9.829326923076906 14.43988636363639  9.69230769230768 14.11772727272728  9.69230769230768 13.74545454545455  L 9.69230769230768 9.621818181818185  C 9.69230769230768 9.249545454545455  9.829326923076906 8.927386363636344  10.103365384615358 8.65534090909091  C 10.377403846153868 8.383295454545475  10.701923076923094 8.24727272727273  11.076923076923094 8.24727272727273  L 16.61538461538464 8.24727272727273  C 16.99038461538464 8.24727272727273  17.314903846153868 8.383295454545475  17.58894230769232 8.65534090909091  Z M 17.58894230769232 0.40806818181818016  C 17.862980769230774 0.6801136363636147  18 1.0022727272727252  18 1.374545454545455  L 18 5.49818181818182  C 18 5.87045454545455  17.862980769230774 6.19261363636366  17.58894230769232 6.464659090909095  C 17.314903846153868 6.736704545454529  16.99038461538464 6.872727272727275  16.61538461538464 6.872727272727275  L 11.076923076923094 6.872727272727275  C 10.701923076923094 6.872727272727275  10.377403846153868 6.736704545454529  10.103365384615358 6.464659090909095  C 9.829326923076906 6.19261363636366  9.69230769230768 5.87045454545455  9.69230769230768 5.49818181818182  L 9.69230769230768 1.374545454545455  C 9.69230769230768 1.0022727272727252  9.829326923076906 0.6801136363636147  10.103365384615358 0.40806818181818016  C 10.377403846153868 0.13602272727274567  10.701923076923094 0  11.076923076923094 0  L 16.61538461538464 0  C 16.99038461538464 0  17.314903846153868 0.13602272727274567  17.58894230769232 0.40806818181818016  Z " fill-rule="nonzero" fill="#d7d7d7" stroke="none" transform="matrix(1 0 0 1 220 869 )" />
  </g>
</svg>