<?xml version="1.0" encoding="utf-8"?>
<svg version="1.1" xmlns:xlink="http://www.w3.org/1999/xlink" width="20px" height="16px" xmlns="http://www.w3.org/2000/svg">
  <g transform="matrix(1 0 0 1 -467 -878 )">
    <path d="M 17.133011716057908 8.942356569182287  C 17.141281874569266 8.958622793046167  17.14541695382494 8.983022128842038  17.14541695382494 9.015554576569851  L 17.14541695382494 14.871395167575976  C 17.14541695382494 15.082856077806781  17.06685044796695 15.265851096275696  16.90971743625085 15.420380222982821  C 16.75258442453481 15.57490934968994  16.566505858028936 15.652173913043477  16.35148173673327 15.652173913043477  L 11.58787043418334 15.652173913043477  L 11.58787043418334 10.967501440238589  L 8.412129565816661 10.967501440238589  L 8.412129565816661 15.652173913043477  L 3.648518263266722 15.652173913043477  C 3.4334941419710625 15.652173913043477  3.247415575465189 15.57490934968994  3.0902825637491445 15.420380222982821  C 2.9331495520330533 15.265851096275696  2.854583046175054 15.082856077806781  2.854583046175054 14.871395167575976  L 2.854583046175054 9.015554576569851  C 2.854583046175054 9.007421464637908  2.8566505858028917 8.995221796739997  2.8607856650585672 8.978955572876067  C 2.864920744314246 8.962689349012184  2.8669882839420806 8.950489681114227  2.8669882839420806 8.942356569182287  L 9.999999999999996 3.1597139855637213  L 17.133011716057908 8.942356569182287  Z M 19.998621640248096 7.887085296011392  C 20.00689179875949 7.996882307092742  19.97794624396966 8.092446372293196  19.911784975878696 8.173777491612746  L 19.142660234321177 9.076552916059505  C 19.07649896623021 9.149750923447073  18.98966230186081 9.194483039072843  18.882150241212976 9.210749262936723  L 18.844934527911796 9.210749262936723  C 18.73742246726396 9.210749262936723  18.65058580289456 9.182283371174883  18.584424534803595 9.125351587651245  L 9.999999999999996 2.0861432105459166  L 1.4155754651964039 9.125351587651245  C 1.31633356305997 9.190416483106823  1.2170916609234932 9.218882374868667  1.11784975878702 9.210749262936723  C 1.0103376981391885 9.194483039072843  0.9235010337697919 9.149750923447073  0.8573397656788193 9.076552916059505  L 0.08821502412130396 8.173777491612746  C 0.02205375603033487 8.092446372293196  -0.006891798759497189 7.996882307092742  0.001378359751903701 7.887085296011392  C 0.009648518263258406 7.777288284930041  0.055134390075796326 7.689857331661532  0.13783597518951746 7.624792436205906  L 9.057201929703634 0.3171913653461811  C 9.321847002067553 0.10573045511537948  9.63611302549965 0  9.999999999999996 0  C 10.363886974500343 0  10.67815299793244 0.10573045511537948  10.942798070296359 0.3171913653461811  L 13.969676085458305 2.8059236165237564  L 13.969676085458305 0.4269883764275306  C 13.969676085458305 0.3131248093801666  14.006891798759494 0.21959402216274526  14.081323225361809 0.1463960147751333  C 14.155754651964184 0.07319800738756577  14.250861474844934 0.03659900369378377  14.36664369400412 0.03659900369378377  L 16.748449345279127 0.03659900369378377  C 16.864231564438313 0.03659900369378377  16.959338387319114 0.07319800738756577  17.03376981392143 0.1463960147751333  C 17.108201240523762 0.21959402216274526  17.14541695382494 0.3131248093801666  17.14541695382494 0.4269883764275306  L 17.14541695382494 5.4044528787827275  L 19.862164024810475 7.624792436205906  C 19.9448656099242 7.689857331661532  19.990351481736738 7.777288284930041  19.998621640248096 7.887085296011392  Z " fill-rule="nonzero" fill="#d7d7d7" stroke="none" transform="matrix(1 0 0 1 467 878 )" />
  </g>
</svg>