<?xml version="1.0" encoding="utf-8"?>
<svg version="1.1" xmlns:xlink="http://www.w3.org/1999/xlink" width="15px" height="18px" xmlns="http://www.w3.org/2000/svg">
  <g transform="matrix(1 0 0 1 -198 -872 )">
    <path d="M 12.5 4.983388704318941  C 12.5 5.93724044850498  12.242838541666686 6.819715531561457  11.728515625 7.630813953488371  C 12.034505208333314 7.721656976744185  12.325846354166686 7.844943936877087  12.6025390625 8.000674833887047  C 12.879231770833314 8.156405730897006  13.1689453125 8.393246470099683  13.4716796875 8.71119705149502  C 13.7744140625 9.029147632890385  14.033203125 9.40387510382061  14.248046875 9.835379464285722  C 14.462890625 10.266883824750835  14.641927083333314 10.824919539036557  14.78515625 11.509486607142861  C 14.928385416666686 12.194053675249165  15 12.961352782392026  15 13.811383928571445  C 15 14.810657184385406  14.674479166666686 15.665554921096344  14.0234375 16.376077138704318  C 13.372395833333314 17.08659935631232  12.587890625 17.441860465116292  11.669921875 17.441860465116292  L 3.330078125 17.441860465116292  C 2.412109375 17.441860465116292  1.6276041666666856 17.08659935631232  0.9765625000000001 16.376077138704318  C 0.3255208333333144 15.665554921096344  0 14.810657184385406  0 13.811383928571445  C 0 12.961352782392026  0.07161458333331439 12.194053675249165  0.21484375 11.509486607142861  C 0.3580729166666856 10.824919539036557  0.537109375 10.266883824750835  0.751953125 9.835379464285722  C 0.966796875 9.40387510382061  1.2255859375 9.029147632890385  1.5283203125 8.71119705149502  C 1.8310546875 8.393246470099683  2.1207682291666856 8.156405730897006  2.3974609375 8.000674833887047  C 2.6741536458333144 7.844943936877087  2.9654947916666856 7.721656976744185  3.271484375 7.630813953488371  C 2.7571614583333144 6.819715531561457  2.5 5.93724044850498  2.5 4.983388704318941  C 2.5 4.308554817275763  2.6318359375 3.6645426702657744  2.8955078125 3.051352263289033  C 3.1591796875 2.4381618563122913  3.515625 1.907703488372107  3.9648437500000004 1.4599771594684512  C 4.4140625 1.0122508305647955  4.9462890625 0.6569897217607945  5.5615234375 0.3941938330564767  C 6.1767578125 0.1313979443521589  6.822916666666686 0  7.5 0  C 8.177083333333314 0  8.8232421875 0.1313979443521589  9.4384765625 0.3941938330564767  C 10.0537109375 0.6569897217607945  10.5859375 1.0122508305647955  11.03515625 1.4599771594684512  C 11.484375 1.907703488372107  11.8408203125 2.4381618563122913  12.1044921875 3.051352263289033  C 12.3681640625 3.6645426702657744  12.5 4.308554817275763  12.5 4.983388704318941  Z M 10.1513671875 2.3408300456810593  C 9.4189453125 1.6108414659468338  8.53515625 1.2458471760797352  7.5 1.2458471760797352  C 6.46484375 1.2458471760797352  5.5810546875 1.6108414659468338  4.8486328125 2.3408300456810593  C 4.1162109375 3.070818625415285  3.75 3.9516715116279215  3.75 4.983388704318941  C 3.75 6.01510589700996  4.1162109375 6.895958783222596  4.8486328125 7.625947362956822  C 5.5810546875 8.355935942691048  6.46484375 8.720930232558146  7.5 8.720930232558146  C 8.53515625 8.720930232558146  9.4189453125 8.355935942691048  10.1513671875 7.625947362956822  C 10.8837890625 6.895958783222596  11.25 6.01510589700996  11.25 4.983388704318941  C 11.25 3.9516715116279215  10.8837890625 3.070818625415285  10.1513671875 2.3408300456810593  Z M 3.330078125 16.196013289036557  L 11.669921875 16.196013289036557  C 12.242838541666686 16.196013289036557  12.732747395833314 15.964039140365458  13.1396484375 15.500090843023258  C 13.546549479166686 15.03614254568106  13.75 14.473240240863788  13.75 13.811383928571445  C 13.75 12.260563745847179  13.494466145833314 11.037427325581405  12.9833984375 10.141974667774093  C 12.472330729166686 9.246522009966782  11.73828125 8.776084925249165  10.78125 8.730663413621272  C 9.837239583333314 9.554739410299021  8.743489583333314 9.966777408637881  7.5 9.966777408637881  C 6.256510416666686 9.966777408637881  5.162760416666686 9.554739410299021  4.21875 8.730663413621272  C 3.26171875 8.776084925249165  2.5276692708333144 9.246522009966782  2.0166015625 10.141974667774093  C 1.5055338541666856 11.037427325581405  1.25 12.260563745847179  1.25 13.811383928571445  C 1.25 14.473240240863788  1.4534505208333144 15.03614254568106  1.8603515625 15.500090843023258  C 2.2672526041666856 15.964039140365458  2.7571614583333144 16.196013289036557  3.330078125 16.196013289036557  Z " fill-rule="nonzero" fill="#5683fe" stroke="none" transform="matrix(1 0 0 1 198 872 )" />
  </g>
</svg>