<?xml version="1.0" encoding="utf-8"?>
<svg version="1.1" xmlns:xlink="http://www.w3.org/1999/xlink" width="33px" height="41px" xmlns="http://www.w3.org/2000/svg">
  <defs>
    <filter x="330px" y="1040px" width="33px" height="41px" filterUnits="userSpaceOnUse" id="filter154">
      <feOffset dx="1" dy="1" in="SourceAlpha" result="shadowOffsetInner" />
      <feGaussianBlur stdDeviation="2.5" in="shadowOffsetInner" result="shadowGaussian" />
      <feComposite in2="shadowGaussian" operator="atop" in="SourceAlpha" result="shadowComposite" />
      <feColorMatrix type="matrix" values="0 0 0 0 0  0 0 0 0 0  0 0 0 0 0  0 0 0 0.6980392156862745 0  " in="shadowComposite" />
    </filter>
    <g id="widget155">
      <path d="M 345.5 1074.0298553813116  C 341.1 1066.652987926961  334.5 1062.2268674543507  334.5 1054.85  C 334.5 1051.0057142857142  336.7 1044.5  345.5 1044.5  C 354.3 1044.5  356.5 1051.0057142857142  356.5 1054.85  C 356.5 1062.2268674543507  349.9 1066.652987926961  345.5 1074.0298553813116  Z " fill-rule="nonzero" fill="#c20017" stroke="none" />
      <path d="M 345.5 1075  C 340.9 1067.25  334 1062.6  334 1054.85  C 334 1050.82  336.3 1044  345.5 1044  C 354.7 1044  357 1050.82  357 1054.85  C 357 1062.6  350.1 1067.25  345.5 1075  Z M 345.5 1073.0597107626231  C 349.7 1066.0559758539218  356 1061.8537349087012  356 1054.85  C 356 1051.1914285714286  353.9 1045  345.5 1045  C 337.1 1045  335 1051.1914285714286  335 1054.85  C 335 1061.8537349087012  341.3 1066.0559758539218  345.5 1073.0597107626231  Z " fill-rule="nonzero" fill="#ffffff" stroke="none" />
    </g>
  </defs>
  <g transform="matrix(1 0 0 1 -330 -1040 )">
    <use xlink:href="#widget155" filter="url(#filter154)" />
    <use xlink:href="#widget155" />
  </g>
</svg>